<svg width="20" height="20" viewBox="0 0 20 20" fill="none" xmlns="http://www.w3.org/2000/svg">
<path fill-rule="evenodd" clip-rule="evenodd" d="M8.18648 0.122687C8.61148 -0.00762047 9.06039 -0.0345766 9.49739 0.04397C9.93439 0.122517 10.3474 0.30439 10.7034 0.575074C11.0594 0.845758 11.3485 1.19775 11.5478 1.60297C11.747 2.00818 11.8508 2.45539 11.8509 2.90889V17.0911C11.8508 17.5446 11.747 17.9918 11.5478 18.397C11.3485 18.8022 11.0594 19.1542 10.7034 19.4249C10.3474 19.6956 9.93439 19.8775 9.49739 19.956C9.06039 20.0346 8.61148 20.0076 8.18648 19.8773L2.49346 18.1317C1.90717 17.9519 1.3932 17.5838 1.02777 17.0819C0.662348 16.58 0.464944 15.9711 0.464844 15.3455V4.65452C0.464944 4.0289 0.662348 3.41998 1.02777 2.91809C1.3932 2.4162 1.90717 2.04807 2.49346 1.86831L8.18648 0.122687ZM12.7997 2.24168C12.7997 1.98447 12.8997 1.7378 13.0776 1.55593C13.2556 1.37406 13.4969 1.27189 13.7486 1.27189H16.5951C17.35 1.27189 18.074 1.57841 18.6079 2.12402C19.1417 2.66964 19.4416 3.40965 19.4416 4.18126V5.15105C19.4416 5.40825 19.3416 5.65492 19.1637 5.83679C18.9857 6.01866 18.7444 6.12084 18.4928 6.12084C18.2411 6.12084 17.9998 6.01866 17.8218 5.83679C17.6439 5.65492 17.5439 5.40825 17.5439 5.15105V4.18126C17.5439 3.92405 17.4439 3.67738 17.266 3.49551C17.0881 3.31364 16.8467 3.21147 16.5951 3.21147H13.7486C13.4969 3.21147 13.2556 3.10929 13.0776 2.92742C12.8997 2.74555 12.7997 2.49888 12.7997 2.24168ZM18.4928 13.8792C18.7444 13.8792 18.9857 13.9813 19.1637 14.1632C19.3416 14.3451 19.4416 14.5917 19.4416 14.849V15.8187C19.4416 16.5904 19.1417 17.3304 18.6079 17.876C18.074 18.4216 17.35 18.7281 16.5951 18.7281H13.7486C13.4969 18.7281 13.2556 18.6259 13.0776 18.4441C12.8997 18.2622 12.7997 18.0155 12.7997 17.7583C12.7997 17.5011 12.8997 17.2544 13.0776 17.0726C13.2556 16.8907 13.4969 16.7885 13.7486 16.7885H16.5951C16.8467 16.7885 17.0881 16.6864 17.266 16.5045C17.4439 16.3226 17.5439 16.0759 17.5439 15.8187V14.849C17.5439 14.5917 17.6439 14.3451 17.8218 14.1632C17.9998 13.9813 18.2411 13.8792 18.4928 13.8792ZM7.1067 9.03021C6.85506 9.03021 6.61372 9.13238 6.43577 9.31425C6.25783 9.49613 6.15787 9.74279 6.15787 10C6.15787 10.2572 6.25783 10.5039 6.43577 10.6857C6.61372 10.8676 6.85506 10.9698 7.1067 10.9698H7.10765C7.3593 10.9698 7.60064 10.8676 7.77858 10.6857C7.95652 10.5039 8.05649 10.2572 8.05649 10C8.05649 9.74279 7.95652 9.49613 7.77858 9.31425C7.60064 9.13238 7.3593 9.03021 7.10765 9.03021H7.1067Z" fill="#3A3838"/>
<path d="M13.7485 10.0001H18.4927H13.7485ZM18.4927 10.0001L16.595 8.06055L18.4927 10.0001ZM18.4927 10.0001L16.595 11.9397L18.4927 10.0001Z" fill="#3A3838"/>
<path d="M13.7485 10.0001H18.4927M18.4927 10.0001L16.595 8.06055M18.4927 10.0001L16.595 11.9397" stroke="#3A3838" stroke-linecap="round" stroke-linejoin="round"/>
</svg>
