<svg width="22" height="22" viewBox="0 0 22 22" fill="none" xmlns="http://www.w3.org/2000/svg">
<path d="M11.0001 20.1665C12.0084 20.1665 12.8334 19.3415 12.8334 18.3332H9.16675C9.16675 19.3415 9.99175 20.1665 11.0001 20.1665ZM16.5001 14.6665V10.0832C16.5001 7.269 15.0059 4.91317 12.3751 4.28984V3.6665C12.3751 2.90567 11.7609 2.2915 11.0001 2.2915C10.2392 2.2915 9.62508 2.90567 9.62508 3.6665V4.28984C7.00342 4.91317 5.50008 7.25984 5.50008 10.0832V14.6665L3.66675 16.4998V17.4165H18.3334V16.4998L16.5001 14.6665ZM14.6667 15.5832H7.33342V10.0832C7.33342 7.80984 8.71758 5.95817 11.0001 5.95817C13.2826 5.95817 14.6667 7.80984 14.6667 10.0832V15.5832Z" fill="#3A3838"/>
</svg>
