<svg width="15" height="14" viewBox="0 0 15 14" fill="none" xmlns="http://www.w3.org/2000/svg">
<g clip-path="url(#clip0_183_211)">
<path d="M14.8628 13.2486L10.3082 8.97159C11.1571 8.02266 11.6687 6.80181 11.6687 5.46875C11.6687 2.44847 9.04534 0 5.80933 0C2.57331 0 -0.0500488 2.44847 -0.0500488 5.46875C-0.0500488 8.48903 2.57331 10.9375 5.80933 10.9375C7.27956 10.9375 8.62253 10.4309 9.65144 9.59569L14.1997 13.8674C14.3828 14.0383 14.6797 14.0383 14.8628 13.8674C15.0456 13.6966 15.0456 13.4197 14.8628 13.2486H14.8628ZM5.80933 10.0697C3.08683 10.0697 0.879717 8.00975 0.879717 5.46875C0.879717 2.92775 3.08683 0.867781 5.80933 0.867781C8.53183 0.867781 10.7389 2.92775 10.7389 5.46875C10.7389 8.00975 8.53183 10.0697 5.80933 10.0697Z" fill="black"/>
</g>
<defs>
<clipPath id="clip0_183_211">
<rect width="15" height="14" fill="white"/>
</clipPath>
</defs>
</svg>
